<svg xmlns:inkscape="http://www.inkscape.org/namespaces/inkscape" xmlns:sodipodi="http://sodipodi.sourceforge.net/DTD/sodipodi-0.dtd" xmlns:xlink="http://www.w3.org/1999/xlink" xmlns="http://www.w3.org/2000/svg" xmlns:svg="http://www.w3.org/2000/svg" version="1.1" id="svg1" width="226" height="226" viewBox="535 983 113 113" sodipodi:docname="upload_6oapzmfctvizpdhmfr7pbwszid.pdf" style="&#10;">
  
  
  <rect x="535" y="983" width="113" height="113" fill="#003863" rx="12"/>
  <g xmlns:inkscape="http://www.inkscape.org/namespaces/inkscape" id="g1" inkscape:label="1">
    
    
    
    
    
    
    
    
    
    
    
    
    
    <path id="path19" d="m 443.3715,39.8996 c 0,5.268 2.586,10.906 8.591,10.906 5.719,0 8.482,-5.527 8.482,-10.595 0,-5.213 -2.63,-10.872 -8.573,-10.872 -5.668,0 -8.5,5.527 -8.5,10.561 m 18.791,0.415 c 0,6.136 -3.356,11.886 -10.098,11.886 -6.944,0 -10.411,-6.075 -10.411,-12.37 0,-6.127 3.442,-11.886 10.149,-11.886 7.003,0 10.36,6.062 10.36,12.37" style="fill:#fff;fill-opacity:1;fill-rule:evenodd;stroke:none" transform="matrix(1.3333333,0,0,-1.3333333,0,1122.52)" clip-path="url(#clipPath20)"/>
    <path id="path21" d="m 466.9677,50.49 c 1.2,0.257 2.478,0.313 3.702,0.313 3.352,0 6.947,-1.043 6.947,-5.055 0,-3.662 -3.384,-5.121 -6.567,-5.121 h -2.553 l -1.531,10e-4 10e-4,2.218 z m -1.836,-21.99 h 1.832 l 0.002,10.768 h 2.505 c 4.18,0 6.26,-0.698 7.304,-5.054 0.297,-1.238 0.574,-2.482 0.92,-3.708 0.178,-0.631 0.349,-1.292 0.649,-1.879 0.026,-0.051 0.013,-0.129 0.071,-0.129 h 1.87 c -1.982,3.497 -1.193,9.98 -5.876,11.327 v 0.034 0.035 c 2.913,0.92 5.039,2.922 5.039,6.133 0,4.955 -4.713,6.135 -8.739,6.135 -1.852,0 -3.754,-0.132 -5.573,-0.486 z" style="fill:#fff;fill-opacity:1;fill-rule:evenodd;stroke:none" transform="matrix(1.3333333,0,0,-1.3333333,0,1122.52)" clip-path="url(#clipPath22)"/>
    <path id="path23" d="m 436.6207,64.2133 c 0.991,1.339 7.753,10.797 8.14,11.115 h 0.038 0.039 c -0.237,-3.69 -0.125,-7.419 -0.125,-11.116 h -2.528 z m 8.109,-1.396 -0.036,-8.225 h 1.87 l 0.093,23.489 h -0.878 c -0.072,0 -0.863,0.01 -0.877,0.001 -0.111,-0.073 -15.947,-21.355 -17.538,-23.487 h 2.253 c 0.126,0 0.119,0.157 0.195,0.257 l 2.933,3.855 2.934,3.855 c 0.076,0.1 0.069,0.257 0.195,0.257 l 2.583,-10e-4 z" style="fill:#fff;fill-opacity:1;fill-rule:evenodd;stroke:none" transform="matrix(1.3333333,0,0,-1.3333333,0,1122.52)" clip-path="url(#clipPath24)"/>
    <path id="path25" d="m 464.9083,76.6471 c 1.178,0.238 2.428,0.279 3.627,0.279 3.498,0 7.022,-1.294 7.022,-5.369 0,-4.329 -3.613,-5.748 -7.368,-5.748 -1.092,0 -2.233,0.017 -3.283,0.348 v 2.098 z m -1.836,-21.99 h 1.832 l 0.002,10.036 c 1.017,-0.268 2.085,-0.278 3.13,-0.278 4.643,0 9.353,1.993 9.353,7.316 0,5.049 -4.505,6.588 -8.778,6.588 -1.853,0 -3.706,-0.152 -5.535,-0.452 z" style="fill:#fff;fill-opacity:1;fill-rule:evenodd;stroke:none" transform="matrix(1.3333333,0,0,-1.3333333,0,1122.52)" clip-path="url(#clipPath26)"/>
    <path id="path27" d="m 427.0383,28.5066 h 1.832 l 0.002,11.361 10.001,-0.002 v 0.697 l 0.001,0.697 -10.001,0.002 0.001,9.339 12.597,-0.002 v 0.697 0.697 l -14.428,0.003 z" style="fill:#fff;fill-opacity:1;fill-rule:nonzero;stroke:none" transform="matrix(1.3333333,0,0,-1.3333333,0,1122.52)" clip-path="url(#clipPath28)"/>
    <path id="path29" d="m 449.5985,54.6592 11.374,-0.002 10e-4,0.697 v 0.697 l -9.543,0.002 0.005,22.095 h -1.832 z" style="fill:#fff;fill-opacity:1;fill-rule:nonzero;stroke:none" transform="matrix(1.3333333,0,0,-1.3333333,0,1122.52)" clip-path="url(#clipPath30)"/>
    <path id="path31" d="m 416.8772,60.7119 30.329,36.618 16.233,-13.174 -0.74,-0.739 -15.398,12.44 -29.524,-35.918 z" style="fill:#fff;fill-opacity:1;fill-rule:nonzero;stroke:none" transform="matrix(1.3333333,0,0,-1.3333333,0,1122.52)" clip-path="url(#clipPath32)"/>
    <path id="path33" d="m 409.0393,64.8125 13.987,-13.538 v -22.997 h 1.12 v 23.535 l -15.107,14.479 z" style="fill:#fff;fill-opacity:1;fill-rule:nonzero;stroke:none" transform="matrix(1.3333333,0,0,-1.3333333,0,1122.52)" clip-path="url(#clipPath34)"/>
    <path id="path35" d="m 409.2187,49.481 h 9.28 v -8.159 h -6.769 v 1.166 h 5.648 v 5.872 h -8.159 z" style="fill:#fff;fill-opacity:1;fill-rule:nonzero;stroke:none" transform="matrix(1.3333333,0,0,-1.3333333,0,1122.52)" clip-path="url(#clipPath36)"/>
    <path id="path37" d="m 458.1471,78.769 9.496,10.431 13.553,-12.264 0.062,-1.272 -13.563,12.154 -8.204,-9.049 z" style="fill:#fff;fill-opacity:1;fill-rule:nonzero;stroke:none" transform="matrix(1.3333333,0,0,-1.3333333,0,1122.52)" clip-path="url(#clipPath38)"/>
    
    
    
    
    
  </g>
</svg>