<svg xmlns:inkscape="http://www.inkscape.org/namespaces/inkscape" xmlns:sodipodi="http://sodipodi.sourceforge.net/DTD/sodipodi-0.dtd" xmlns:xlink="http://www.w3.org/1999/xlink" xmlns="http://www.w3.org/2000/svg" xmlns:svg="http://www.w3.org/2000/svg" version="1.1" id="svg1" width="470" height="226" viewBox="535 983 235 113" sodipodi:docname="upload_6oapzmfctvizpdhmfr7pbwszid.pdf" style="&#10; &#10;">
  
  
  <g id="g1" xmlns:inkscape="http://www.inkscape.org/namespaces/inkscape" inkscape:label="1">
    
    
    
    
    
    
    
    
    
    
    
    
    
    <path id="path19" d="m 443.3715,39.8996 c 0,5.268 2.586,10.906 8.591,10.906 5.719,0 8.482,-5.527 8.482,-10.595 0,-5.213 -2.63,-10.872 -8.573,-10.872 -5.668,0 -8.5,5.527 -8.5,10.561 m 18.791,0.415 c 0,6.136 -3.356,11.886 -10.098,11.886 -6.944,0 -10.411,-6.075 -10.411,-12.37 0,-6.127 3.442,-11.886 10.149,-11.886 7.003,0 10.36,6.062 10.36,12.37" style="fill:#5e686a;fill-opacity:1;fill-rule:evenodd;stroke:none" transform="matrix(1.3333333,0,0,-1.3333333,0,1122.52)" clip-path="url(#clipPath20)"/>
    <path id="path21" d="m 466.9677,50.49 c 1.2,0.257 2.478,0.313 3.702,0.313 3.352,0 6.947,-1.043 6.947,-5.055 0,-3.662 -3.384,-5.121 -6.567,-5.121 h -2.553 l -1.531,10e-4 10e-4,2.218 z m -1.836,-21.99 h 1.832 l 0.002,10.768 h 2.505 c 4.18,0 6.26,-0.698 7.304,-5.054 0.297,-1.238 0.574,-2.482 0.92,-3.708 0.178,-0.631 0.349,-1.292 0.649,-1.879 0.026,-0.051 0.013,-0.129 0.071,-0.129 h 1.87 c -1.982,3.497 -1.193,9.98 -5.876,11.327 v 0.034 0.035 c 2.913,0.92 5.039,2.922 5.039,6.133 0,4.955 -4.713,6.135 -8.739,6.135 -1.852,0 -3.754,-0.132 -5.573,-0.486 z" style="fill:#5e686a;fill-opacity:1;fill-rule:evenodd;stroke:none" transform="matrix(1.3333333,0,0,-1.3333333,0,1122.52)" clip-path="url(#clipPath22)"/>
    <path id="path23" d="m 436.6207,64.2133 c 0.991,1.339 7.753,10.797 8.14,11.115 h 0.038 0.039 c -0.237,-3.69 -0.125,-7.419 -0.125,-11.116 h -2.528 z m 8.109,-1.396 -0.036,-8.225 h 1.87 l 0.093,23.489 h -0.878 c -0.072,0 -0.863,0.01 -0.877,0.001 -0.111,-0.073 -15.947,-21.355 -17.538,-23.487 h 2.253 c 0.126,0 0.119,0.157 0.195,0.257 l 2.933,3.855 2.934,3.855 c 0.076,0.1 0.069,0.257 0.195,0.257 l 2.583,-10e-4 z" style="fill:#007dc1;fill-opacity:1;fill-rule:evenodd;stroke:none" transform="matrix(1.3333333,0,0,-1.3333333,0,1122.52)" clip-path="url(#clipPath24)"/>
    <path id="path25" d="m 464.9083,76.6471 c 1.178,0.238 2.428,0.279 3.627,0.279 3.498,0 7.022,-1.294 7.022,-5.369 0,-4.329 -3.613,-5.748 -7.368,-5.748 -1.092,0 -2.233,0.017 -3.283,0.348 v 2.098 z m -1.836,-21.99 h 1.832 l 0.002,10.036 c 1.017,-0.268 2.085,-0.278 3.13,-0.278 4.643,0 9.353,1.993 9.353,7.316 0,5.049 -4.505,6.588 -8.778,6.588 -1.853,0 -3.706,-0.152 -5.535,-0.452 z" style="fill:#007dc1;fill-opacity:1;fill-rule:evenodd;stroke:none" transform="matrix(1.3333333,0,0,-1.3333333,0,1122.52)" clip-path="url(#clipPath26)"/>
    <path id="path27" d="m 427.0383,28.5066 h 1.832 l 0.002,11.361 10.001,-0.002 v 0.697 l 0.001,0.697 -10.001,0.002 0.001,9.339 12.597,-0.002 v 0.697 0.697 l -14.428,0.003 z" style="fill:#5e686a;fill-opacity:1;fill-rule:nonzero;stroke:none" transform="matrix(1.3333333,0,0,-1.3333333,0,1122.52)" clip-path="url(#clipPath28)"/>
    <path id="path29" d="m 449.5985,54.6592 11.374,-0.002 10e-4,0.697 v 0.697 l -9.543,0.002 0.005,22.095 h -1.832 z" style="fill:#007dc1;fill-opacity:1;fill-rule:nonzero;stroke:none" transform="matrix(1.3333333,0,0,-1.3333333,0,1122.52)" clip-path="url(#clipPath30)"/>
    <path id="path31" d="m 416.8772,60.7119 30.329,36.618 16.233,-13.174 -0.74,-0.739 -15.398,12.44 -29.524,-35.918 z" style="fill:#c4c5c7;fill-opacity:1;fill-rule:nonzero;stroke:none" transform="matrix(1.3333333,0,0,-1.3333333,0,1122.52)" clip-path="url(#clipPath32)"/>
    <path id="path33" d="m 409.0393,64.8125 13.987,-13.538 v -22.997 h 1.12 v 23.535 l -15.107,14.479 z" style="fill:#8f9799;fill-opacity:1;fill-rule:nonzero;stroke:none" transform="matrix(1.3333333,0,0,-1.3333333,0,1122.52)" clip-path="url(#clipPath34)"/>
    <path id="path35" d="m 409.2187,49.481 h 9.28 v -8.159 h -6.769 v 1.166 h 5.648 v 5.872 h -8.159 z" style="fill:#8f9799;fill-opacity:1;fill-rule:nonzero;stroke:none" transform="matrix(1.3333333,0,0,-1.3333333,0,1122.52)" clip-path="url(#clipPath36)"/>
    <path id="path37" d="m 458.1471,78.769 9.496,10.431 13.553,-12.264 0.062,-1.272 -13.563,12.154 -8.204,-9.049 z" style="fill:#c4c5c7;fill-opacity:1;fill-rule:nonzero;stroke:none" transform="matrix(1.3333333,0,0,-1.3333333,0,1122.52)" clip-path="url(#clipPath38)"/>
    <path id="path39" d="m 4.6637641,-2.3321766 0.796875,2.3320312875 H 6.4801703 L 3.9489203,-7.4181141 H 2.8004828 L 0.26923281,-1.453125e-4 H 1.2653266 L 2.0387641,-2.3321766 Z m -2.4257813,-0.75 0.7265625,-2.1445312 c 0.140625,-0.4570313 0.2578125,-0.9140625 0.3632813,-1.3476563 h 0.023437 c 0.1171875,0.4335938 0.2226562,0.8789063 0.375,1.359375 l 0.7382812,2.1328125 z M 7.5963813,-1.453125e-4 H 8.5573188 V -7.8165516 H 7.5963813 Z M 10.247748,2.1795422 h 0.960938 v -2.89453126 h 0.02344 c 0.316407,0.52734375 0.925782,0.83203125 1.640625,0.83203125 1.242188,0 2.425782,-0.9375 2.425782,-2.85937499 0,-1.6171875 -0.972657,-2.7070313 -2.273438,-2.7070313 -0.855469,0 -1.5,0.375 -1.875,1.03125 h -0.02344 l -0.05859,-0.9023437 h -0.867188 c 0.03516,0.5039062 0.04687,1.0546875 0.04687,1.734375 z m 0.960938,-5.2734375 c 0,-0.1171875 0.03516,-0.2578125 0.05859,-0.3867188 0.1875,-0.7382812 0.808593,-1.1953125 1.476562,-1.1953125 1.019531,0 1.570313,0.9140625 1.570313,1.9804688 0,1.21875 -0.597657,2.06249999 -1.617188,2.06249999 -0.679687,0 -1.277344,-0.46874999 -1.441406,-1.13671879 -0.03516,-0.1289062 -0.04687,-0.2695312 -0.04687,-0.3984375 z m 6.313477,3.0937499875 V -5.3204578 H 16.561225 V -1.453125e-4 Z M 17.029975,-6.2228016 c 0.375,0 0.609375,-0.28125 0.609375,-0.5976562 0,-0.3398438 -0.246094,-0.609375 -0.597656,-0.609375 -0.363281,0 -0.609375,0.2695312 -0.609375,0.609375 0,0.3164062 0.234375,0.5976562 0.585937,0.5976562 z m 2.15918,6.2226562875 h 0.960937 V -3.2110828 c 0,-0.1523438 0.02344,-0.328125 0.07031,-0.4570313 0.175781,-0.5390625 0.667968,-0.984375 1.300781,-0.984375 0.914062,0 1.230469,0.7265625 1.230469,1.5820313 v 3.0703124875 h 0.960937 V -3.1759266 c 0,-1.828125 -1.136719,-2.2734375 -1.875,-2.2734375 -0.878906,0 -1.5,0.4921875 -1.757812,0.9960938 h -0.02344 l -0.05859,-0.8671875 H 19.14228 c 0.03516,0.4335937 0.04687,0.8789062 0.04687,1.4414062 z M 29.627631,-2.4845203 c 0.02344,-0.1171875 0.03516,-0.2578125 0.03516,-0.4570313 0,-0.9726562 -0.457032,-2.5078125 -2.191407,-2.5078125 -1.558593,0 -2.507812,1.265625 -2.507812,2.8710938 0,1.59374999 0.984375,2.68359374 2.613281,2.68359374 0.84375,0 1.441406,-0.1875 1.78125,-0.33984375 l -0.175781,-0.69140625 c -0.351563,0.15234375 -0.773438,0.28125 -1.476563,0.28125 -0.960937,0 -1.792968,-0.53906254 -1.816406,-1.83984374 z m -3.726562,-0.6914063 c 0.08203,-0.6796875 0.503906,-1.5820312 1.488281,-1.5820312 1.078125,0 1.347656,0.9609375 1.335938,1.5820312 z m 0,0" style="fill:#ffffff;fill-opacity:1;fill-rule:nonzero;stroke:none" aria-label="Alpine " transform="matrix(1.3333333,0,0,1.3333333,650.10587,1038.6916)" clip-path="url(#clipPath40)"/>
    <path id="path41" d="M 0.82001406,-5.4375e-4 H 1.7926703 V -3.3521062 h 2.8007813 v -0.796875 H 1.7926703 V -6.6099187 H 4.8161078 V -7.4185125 H 0.82001406 Z m 7.22753904,0.1171875 c 1.265625,0 2.6484379,-0.85546875 2.6484379,-2.83593745 0,-1.6171875 -1.0312504,-2.7304688 -2.5664066,-2.7304688 -1.4648438,0 -2.6367188,1.0429688 -2.6367188,2.8359375 0,1.67578125 1.1132813,2.73046875 2.5546875,2.73046875 z m 0.023437,-0.7265625 c -0.9257812,0 -1.59375,-0.87890625 -1.59375,-2.03906245 0,-1.0195313 0.4921875,-2.0742188 1.6289063,-2.0742188 1.1484375,0 1.59375,1.1367188 1.59375,2.0390625 0,1.2070313 -0.6914063,2.07421875 -1.6171875,2.07421875 z m 3.9023429,0.609375 h 0.960938 V -2.8482 c 0,-0.1523437 0.01172,-0.3046875 0.03516,-0.4570312 0.128907,-0.7148438 0.621094,-1.2304688 1.300782,-1.2304688 0.128906,0 0.234375,0.011719 0.328125,0.023437 v -0.914062 c -0.09375,-0.011719 -0.164062,-0.023437 -0.269532,-0.023437 -0.644531,0 -1.242187,0.4570313 -1.476562,1.171875 h -0.03516 l -0.04687,-1.0429687 h -0.84375 c 0.03516,0.4921875 0.04687,1.03125 0.04687,1.6523437 z m 3.29004,-0.26953125 c 0.363282,0.22265625 0.902344,0.375 1.488282,0.375 1.242187,0 1.980468,-0.65625 1.980468,-1.6054687 0,-0.7851563 -0.480468,-1.2539063 -1.394531,-1.59375 -0.691406,-0.2695313 -0.996094,-0.46875 -0.996094,-0.9140625 0,-0.3984375 0.304688,-0.7265625 0.878907,-0.7265625 0.492187,0 0.878906,0.1875 1.089843,0.3164062 l 0.222657,-0.703125 c -0.28125,-0.1875 -0.75,-0.328125 -1.289063,-0.328125 -1.136719,0 -1.839844,0.703125 -1.839844,1.5703125 0,0.6210938 0.445313,1.1484375 1.417969,1.5 0.703125,0.2695313 0.972656,0.5039063 0.972656,0.9726563 0,0.44531245 -0.328125,0.7851562 -1.019531,0.7851562 -0.480469,0 -0.984375,-0.1875 -1.289062,-0.375 z m 8.393555,-0.65625 c -0.269531,0.1171875 -0.632812,0.2578125 -1.183594,0.2578125 -1.054687,0 -1.851562,-0.7617187 -1.851562,-1.9921875 0,-1.1015625 0.667969,-2.015625 1.886719,-2.015625 0.527343,0 0.890625,0.1289063 1.125,0.2578125 l 0.210937,-0.7382812 c -0.257812,-0.1523438 -0.761719,-0.2929688 -1.335937,-0.2929688 -1.746094,0 -2.859375,1.2070313 -2.859375,2.8359375 0,1.62890625 1.042968,2.71875 2.648437,2.71875 0.714844,0 1.277344,-0.1875 1.535156,-0.3046875 z m 1.362305,0.92578125 H 25.98017 V -3.2114812 c 0,-0.1875 0.01172,-0.328125 0.07031,-0.46875 0.1875,-0.5273438 0.667969,-0.9609375 1.300781,-0.9609375 0.914063,0 1.230469,0.7148437 1.230469,1.5703125 v 3.07031245 h 0.96094 V -3.1646062 c 0,-1.8398438 -1.136718,-2.2851563 -1.851562,-2.2851563 -0.363281,0 -0.703125,0.1054688 -0.996094,0.28125 -0.292969,0.1523438 -0.539062,0.3984375 -0.691406,0.6796875 H 25.98017 V -7.81695 H 25.019233 Z M 35.633491,-5.3208562 h -0.972657 v 3.2460937 c 0,0.1875 -0.03516,0.3632813 -0.08203,0.5039063 -0.175781,0.4335937 -0.632812,0.89062495 -1.277344,0.89062495 -0.867187,0 -1.195312,-0.69140625 -1.195312,-1.71093745 V -5.3208562 H 31.14521 v 3.1054687 c 0,1.86328125 0.996094,2.33203125 1.839844,2.33203125 0.9375,0 1.511719,-0.5625 1.757813,-0.984375 h 0.02344 l 0.04687,0.8671875 h 0.867188 c -0.03516,-0.421875 -0.04687,-0.90234375 -0.04687,-1.46484375 z m 1.661132,5.32031245 h 0.960938 V -3.2114812 c 0,-0.1523438 0.02344,-0.328125 0.07031,-0.4570313 0.175782,-0.5390625 0.667969,-0.984375 1.300782,-0.984375 0.914062,0 1.230468,0.7265625 1.230468,1.5820313 v 3.07031245 h 0.960938 V -3.176325 c 0,-1.828125 -1.136719,-2.2734375 -1.875,-2.2734375 -0.878906,0 -1.5,0.4921875 -1.757813,0.9960938 h -0.02344 l -0.05859,-0.8671875 h -0.855469 c 0.03516,0.4335937 0.04687,0.8789062 0.04687,1.4414062 z M 48.002631,-3.87945 c 0,-0.6328125 0.01172,-1.078125 0.04687,-1.4414062 h -0.855468 l -0.03516,0.796875 h -0.02344 c -0.246094,-0.4453125 -0.738281,-0.9257813 -1.664063,-0.9257813 -1.230468,0 -2.402343,1.0195313 -2.402343,2.8242188 0,1.4765625 0.9375,2.60156245 2.261718,2.60156245 0.832032,0 1.40625,-0.3984375 1.699219,-0.890625 h 0.02344 v 0.5859375 c 0,1.34765625 -0.726563,1.86328125 -1.722657,1.86328125 -0.65625,0 -1.207031,-0.1875 -1.558593,-0.421875 l -0.246094,0.75 c 0.433594,0.28125 1.136719,0.4335938 1.769531,0.4335938 0.679688,0 1.417969,-0.1640625 1.957031,-0.6328125 0.503907,-0.4804688 0.75,-1.21875005 0.75,-2.4492188 z m -0.960937,1.6054688 c 0,0.1757812 -0.02344,0.3632812 -0.08203,0.515625 -0.199219,0.6210937 -0.738282,0.9960937 -1.335938,0.9960937 -1.042969,0 -1.582031,-0.8789062 -1.582031,-1.9101562 0,-1.2421875 0.667969,-2.0273438 1.582031,-2.0273438 0.726563,0 1.183594,0.4570313 1.359375,1.03125 0.04687,0.140625 0.05859,0.28125 0.05859,0.4335938 z m 2.255859,2.0039062 c 0.363281,0.22265625 0.902344,0.375 1.488281,0.375 1.242188,0 1.980469,-0.65625 1.980469,-1.6054687 0,-0.7851563 -0.480469,-1.2539063 -1.394531,-1.59375 -0.691406,-0.2695313 -0.996094,-0.46875 -0.996094,-0.9140625 0,-0.3984375 0.304688,-0.7265625 0.878906,-0.7265625 0.492188,0 0.878907,0.1875 1.089844,0.3164062 l 0.222656,-0.703125 c -0.28125,-0.1875 -0.75,-0.328125 -1.289062,-0.328125 -1.136719,0 -1.839844,0.703125 -1.839844,1.5703125 0,0.6210938 0.445313,1.1484375 1.417969,1.5 0.703125,0.2695313 0.972656,0.5039063 0.972656,0.9726563 0,0.44531245 -0.328125,0.7851562 -1.019531,0.7851562 -0.480469,0 -0.984375,-0.1875 -1.289063,-0.375 z m 4.291992,-3.0585937 v 0.7148437 h 2.71875 v -0.7148437 z m 0,0" style="fill:#ffffff;fill-opacity:1;fill-rule:nonzero;stroke:none" aria-label="Forschungs- " transform="matrix(1.3333333,0,0,1.3333333,650.10587,1054.0476)" clip-path="url(#clipPath42)"/>
    <path id="path43" d="M 5.2614203,-5.3212547 H 4.2887641 v 3.2460938 c 0,0.1875 -0.035156,0.3632812 -0.082031,0.5039062 -0.1757812,0.4335938 -0.6328125,0.89062501 -1.2773437,0.89062501 -0.8671875,0 -1.1953125,-0.69140621 -1.1953125,-1.71093751 V -5.3212547 H 0.77313906 v 3.1054688 c 0,1.86328121 0.99609374,2.33203121 1.83984374,2.33203121 0.9375,0 1.5117188,-0.5625 1.7578125,-0.984375 h 0.023437 l 0.046875,0.8671875025 h 0.867188 C 5.2731391,-0.42281719 5.2614203,-0.90328594 5.2614203,-1.4657859 Z M 6.9254828,-9.421875e-4 H 7.8864203 V -3.2118797 c 0,-0.1523437 0.023437,-0.328125 0.070312,-0.4570312 0.1757813,-0.5390625 0.6679688,-0.984375 1.3007813,-0.984375 0.9140634,0 1.2304694,0.7265625 1.2304694,1.5820312 V -9.421875e-4 H 11.44892 V -3.1767234 c 0,-1.828125 -1.136718,-2.2734375 -1.8749997,-2.2734375 -0.8789062,0 -1.5,0.4921875 -1.7578125,0.9960937 H 7.7926703 L 7.7340766,-5.3212547 H 6.8786078 c 0.035156,0.4335938 0.046875,0.8789063 0.046875,1.4414063 z M 16.70478,-7.8173484 v 3.1757812 h -0.01172 c -0.234375,-0.421875 -0.785156,-0.8085937 -1.617188,-0.8085937 -1.277343,0 -2.390625,1.078125 -2.378906,2.859375 0,1.61718746 0.996094,2.70703121 2.285156,2.70703121 0.867188,0 1.511719,-0.4453125 1.804688,-1.04296875 h 0.02344 l 0.04687,0.9257812525 h 0.867188 C 17.689155,-0.36422344 17.677436,-0.90328594 17.677436,-1.3720359 v -6.4453125 z m 0,5.578125 c 0,0.1640625 -0.01172,0.2929687 -0.03516,0.4101562 -0.175781,0.7265625 -0.773437,1.17187501 -1.417968,1.17187501 -1.042969,0 -1.582032,-0.89062501 -1.582032,-1.98046871 0,-1.171875 0.597657,-2.0507813 1.59375,-2.0507813 0.726563,0 1.253907,0.5039063 1.40625,1.1132813 0.02344,0.1289062 0.03516,0.28125 0.03516,0.421875 z m 8.651367,-0.09375 0.796875,2.3320312125 h 1.019531 L 24.641303,-7.4189109 h -1.148437 l -2.53125,7.4179687125 h 0.996093 L 22.731147,-2.3329734 Z m -2.425781,-0.75 0.726562,-2.1445313 c 0.140625,-0.4570312 0.257813,-0.9140625 0.363281,-1.3476562 h 0.02344 c 0.117187,0.4335937 0.222656,0.8789062 0.375,1.359375 l 0.738281,2.1328125 z m 9.676757,-2.2382813 h -0.972656 v 3.2460938 c 0,0.1875 -0.03516,0.3632812 -0.08203,0.5039062 -0.175781,0.4335938 -0.632813,0.89062501 -1.277344,0.89062501 -0.867187,0 -1.195312,-0.69140621 -1.195312,-1.71093751 v -2.9296875 h -0.960938 v 3.1054688 c 0,1.86328121 0.996094,2.33203121 1.839844,2.33203121 0.9375,0 1.511719,-0.5625 1.757812,-0.984375 h 0.02344 l 0.04687,0.8671875025 h 0.867187 C 32.618842,-0.42281719 32.607123,-0.90328594 32.607123,-1.4657859 Z m 1.300782,5.05078126 c 0.363281,0.22265625 0.902343,0.375 1.488281,0.375 1.242187,0 1.980469,-0.65625 1.980469,-1.60546876 0,-0.7851562 -0.480469,-1.2539062 -1.394532,-1.59375 -0.691406,-0.2695312 -0.996093,-0.46875 -0.996093,-0.9140625 0,-0.3984375 0.304687,-0.7265625 0.878906,-0.7265625 0.492187,0 0.878906,0.1875 1.089844,0.3164063 l 0.222656,-0.703125 c -0.28125,-0.1875 -0.75,-0.328125 -1.289063,-0.328125 -1.136718,0 -1.839843,0.703125 -1.839843,1.5703125 0,0.6210937 0.445312,1.1484375 1.417968,1.5 0.703125,0.2695312 0.972657,0.5039062 0.972657,0.9726562 0,0.44531251 -0.328125,0.78515626 -1.019532,0.78515626 -0.480468,0 -0.984375,-0.1875 -1.289062,-0.375 z m 4.772461,-1.10156246 c 0,0.46874996 -0.01172,1.00781246 -0.04687,1.3710937125 h 0.832031 l 0.05859,-0.8789062525 h 0.02344 c 0.398438,0.703125 1.007813,0.99609375 1.78125,0.99609375 1.183594,0 2.402344,-0.9375 2.402344,-2.85937501 0,-1.6054687 -0.925781,-2.7070312 -2.25,-2.7070312 -0.855469,0 -1.476563,0.375 -1.816406,0.9726562 h -0.02344 v -3.3398437 h -0.960937 z m 0.960937,-1.7226563 c 0,-0.1523437 0.02344,-0.28125 0.05859,-0.4101562 0.1875,-0.7265625 0.796875,-1.1835938 1.464844,-1.1835938 1.03125,0 1.582031,0.9140625 1.582031,1.9921875 0,1.21875 -0.597656,2.05078126 -1.617188,2.05078126 -0.691406,0 -1.265625,-0.46874996 -1.453125,-1.13671876 -0.02344,-0.1171875 -0.03516,-0.234375 -0.03516,-0.3515625 z m 6.316406,3.0937500125 V -5.3212547 H 44.996772 V -9.421875e-4 Z M 45.465522,-6.2235984 c 0.375,0 0.609375,-0.28125 0.609375,-0.5976563 0,-0.3398437 -0.246094,-0.609375 -0.597656,-0.609375 -0.363282,0 -0.609375,0.2695313 -0.609375,0.609375 0,0.3164063 0.234375,0.5976563 0.585937,0.5976563 z m 2.15918,6.2226562125 h 0.960937 V -7.8173484 H 47.624702 Z M 53.897163,-7.8173484 v 3.1757812 h -0.01172 c -0.234375,-0.421875 -0.785156,-0.8085937 -1.617188,-0.8085937 -1.277343,0 -2.390625,1.078125 -2.378906,2.859375 0,1.61718746 0.996094,2.70703121 2.285156,2.70703121 0.867188,0 1.511719,-0.4453125 1.804688,-1.04296875 h 0.02344 l 0.04687,0.9257812525 h 0.867188 C 54.881538,-0.36422344 54.869819,-0.90328594 54.869819,-1.3720359 v -6.4453125 z m 0,5.578125 c 0,0.1640625 -0.01172,0.2929687 -0.03516,0.4101562 -0.175781,0.7265625 -0.773437,1.17187501 -1.417968,1.17187501 -1.042969,0 -1.582032,-0.89062501 -1.582032,-1.98046871 0,-1.171875 0.597657,-2.0507813 1.59375,-2.0507813 0.726563,0 1.253907,0.5039063 1.40625,1.1132813 0.02344,0.1289062 0.03516,0.28125 0.03516,0.421875 z m 7.089843,-3.0820313 H 60.01435 v 3.2460938 c 0,0.1875 -0.03516,0.3632812 -0.08203,0.5039062 -0.175781,0.4335938 -0.632813,0.89062501 -1.277344,0.89062501 -0.867187,0 -1.195312,-0.69140621 -1.195312,-1.71093751 v -2.9296875 h -0.960938 v 3.1054688 c 0,1.86328121 0.996094,2.33203121 1.839844,2.33203121 0.9375,0 1.511719,-0.5625 1.757812,-0.984375 h 0.02344 l 0.04687,0.8671875025 h 0.867187 C 60.998725,-0.42281719 60.987006,-0.90328594 60.987006,-1.4657859 Z m 1.664063,5.3203125125 h 0.960937 V -3.2118797 c 0,-0.1523437 0.02344,-0.328125 0.07031,-0.4570312 0.175781,-0.5390625 0.667969,-0.984375 1.300781,-0.984375 0.914063,0 1.230469,0.7265625 1.230469,1.5820312 v 3.0703125125 h 0.960937 V -3.1767234 c 0,-1.828125 -1.136718,-2.2734375 -1.875,-2.2734375 -0.878906,0 -1.5,0.4921875 -1.757812,0.9960937 h -0.02344 l -0.05859,-0.8671875 h -0.855469 c 0.03516,0.4335938 0.04687,0.8789063 0.04687,1.4414063 z M 73.356147,-3.8798484 c 0,-0.6328125 0.01172,-1.078125 0.04687,-1.4414063 h -0.855469 l -0.03516,0.796875 h -0.02344 c -0.246093,-0.4453125 -0.738281,-0.9257812 -1.664062,-0.9257812 -1.230469,0 -2.402344,1.0195312 -2.402344,2.8242187 0,1.4765625 0.9375,2.60156251 2.261719,2.60156251 0.832031,0 1.40625,-0.3984375 1.699219,-0.890625 h 0.02344 v 0.5859375 c 0,1.34765629 -0.726562,1.86328129 -1.722656,1.86328129 -0.65625,0 -1.207031,-0.1875 -1.558594,-0.421875 l -0.246094,0.75 c 0.433594,0.28125 1.136719,0.4335937 1.769532,0.4335937 0.679687,0 1.417968,-0.1640625 1.957031,-0.6328125 0.503906,-0.4804687 0.75,-1.21874999 0.75,-2.44921874 z m -0.960938,1.6054687 c 0,0.1757813 -0.02344,0.3632813 -0.08203,0.515625 -0.199219,0.6210938 -0.738281,0.99609376 -1.335937,0.99609376 -1.042969,0 -1.582032,-0.87890626 -1.582032,-1.91015626 0,-1.2421875 0.667969,-2.0273437 1.582032,-2.0273437 0.726562,0 1.183593,0.4570312 1.359375,1.03125 0.04687,0.140625 0.05859,0.28125 0.05859,0.4335937 z m 2.25586,2.00390626 c 0.363281,0.22265625 0.902344,0.375 1.488281,0.375 1.242188,0 1.980469,-0.65625 1.980469,-1.60546876 0,-0.7851562 -0.480469,-1.2539062 -1.394531,-1.59375 -0.691407,-0.2695312 -0.996094,-0.46875 -0.996094,-0.9140625 0,-0.3984375 0.304687,-0.7265625 0.878906,-0.7265625 0.492188,0 0.878906,0.1875 1.089844,0.3164063 l 0.222656,-0.703125 c -0.28125,-0.1875 -0.75,-0.328125 -1.289062,-0.328125 -1.136719,0 -1.839844,0.703125 -1.839844,1.5703125 0,0.6210937 0.445312,1.1484375 1.417969,1.5 0.703125,0.2695312 0.972656,0.5039062 0.972656,0.9726562 0,0.44531251 -0.328125,0.78515626 -1.019531,0.78515626 -0.480469,0 -0.984375,-0.1875 -1.289063,-0.375 z m 4.294922,-3.05859376 v 0.7148438 h 2.71875 v -0.7148438 z m 0,0" style="fill:#ffffff;fill-opacity:1;fill-rule:nonzero;stroke:none" aria-label="und Ausbildungs-" transform="matrix(1.3333333,0,0,1.3333333,650.10587,1069.4036)" clip-path="url(#clipPath44)"/>
    <path id="path45" d="m 0.44501406,-0.27087188 c 0.36328125,0.22265625 0.90234374,0.375 1.48828124,0.375 1.2421875,0 1.9804688,-0.65625 1.9804688,-1.60546872 0,-0.7851563 -0.4804688,-1.2539063 -1.3945313,-1.59375 -0.6914062,-0.2695313 -0.9960937,-0.46875 -0.9960937,-0.9140625 0,-0.3984375 0.3046875,-0.7265625 0.8789062,-0.7265625 0.4921875,0 0.8789063,0.1875 1.0898438,0.3164062 l 0.2226562,-0.703125 c -0.28125,-0.1875 -0.75,-0.328125 -1.2890625,-0.328125 -1.1367187,0 -1.83984374,0.703125 -1.83984374,1.5703125 0,0.6210938 0.44531254,1.1484375 1.41796874,1.5 0.703125,0.2695313 0.9726563,0.5039063 0.9726563,0.9726563 0,0.44531247 -0.328125,0.78515622 -1.0195313,0.78515622 -0.4804687,0 -0.98437499,-0.1875 -1.28906249,-0.375 z M 5.4313422,-6.3060281 v 0.984375 H 4.6110297 v 0.7265625 h 0.8203125 v 2.8945312 c 0,0.6328125 0.1171875,1.10156252 0.375,1.40625002 0.234375,0.24609375 0.5976562,0.3984375 1.0429687,0.3984375 0.375,0 0.6796875,-0.05859375 0.8671875,-0.12890625 l -0.046875,-0.73828125 c -0.140625,0.046875 -0.2929687,0.0703125 -0.5625,0.0703125 -0.5390625,0 -0.7265625,-0.37500002 -0.7265625,-1.03125002 V -4.5950906 H 7.7633734 V -5.3216531 H 6.3805609 v -1.2773438 z m 7.2333988,3.0351562 c 0,-1.0664062 -0.398438,-2.1796875 -2.039063,-2.1796875 -0.6679686,0 -1.3242186,0.1875 -1.7578124,0.46875 l 0.2226563,0.6445313 c 0.3632812,-0.2578125 0.890625,-0.3984375 1.3945311,-0.3984375 1.089844,-0.011719 1.207031,0.796875 1.207031,1.2304687 v 0.1171875 c -2.0507809,-0.011719 -3.1992184,0.6914063 -3.1992184,1.9804688 0,0.77343747 0.5507813,1.52343747 1.6289064,1.52343747 0.761719,0 1.335937,-0.375 1.628906,-0.78515625 h 0.03516 l 0.08203,0.66796875 h 0.867187 c -0.04687,-0.36328125 -0.07031,-0.80859375 -0.07031,-1.27734377 z m -0.949219,1.4765625 c 0,0.09375 -0.01172,0.2109375 -0.04687,0.3046875 -0.152344,0.4570313 -0.597656,0.89062502 -1.3125,0.89062502 -0.4804689,0 -0.9023439,-0.28125 -0.9023439,-0.92578122 0,-1.03125 1.2070309,-1.21875 2.2617189,-1.1953125 z m 2.724609,-4.5117187 v 0.984375 h -0.820312 v 0.7265625 h 0.820312 v 2.8945312 c 0,0.6328125 0.117188,1.10156252 0.375,1.40625002 0.234375,0.24609375 0.597657,0.3984375 1.042969,0.3984375 0.375,0 0.679688,-0.05859375 0.867188,-0.12890625 l -0.04687,-0.73828125 c -0.140625,0.046875 -0.292969,0.0703125 -0.5625,0.0703125 -0.539063,0 -0.726563,-0.37500002 -0.726563,-1.03125002 v -2.8710937 h 1.382813 V -5.3216531 H 15.38935 v -1.2773438 z m 4.444336,6.30468747 V -5.3216531 H 17.92353 v 5.32031247 z M 18.39228,-6.2239969 c 0.375,0 0.609375,-0.28125 0.609375,-0.5976562 0,-0.3398438 -0.246094,-0.609375 -0.597657,-0.609375 -0.363281,0 -0.609375,0.2695312 -0.609375,0.609375 0,0.3164062 0.234375,0.5976562 0.585938,0.5976562 z m 4.330078,6.33984377 c 1.265625,0 2.648437,-0.85546875 2.648437,-2.83593747 0,-1.6171875 -1.03125,-2.7304688 -2.566406,-2.7304688 -1.464844,0 -2.636719,1.0429688 -2.636719,2.8359375 0,1.67578127 1.113282,2.73046877 2.554688,2.73046877 z m 0.02344,-0.7265625 c -0.925781,0 -1.59375,-0.87890627 -1.59375,-2.03906247 0,-1.0195313 0.492188,-2.0742188 1.628907,-2.0742188 1.148437,0 1.59375,1.1367188 1.59375,2.0390625 0,1.2070313 -0.691407,2.07421877 -1.617188,2.07421877 z m 3.902344,0.609375 H 27.60908 V -3.2122781 c 0,-0.1523438 0.02344,-0.328125 0.07031,-0.4570313 0.175781,-0.5390625 0.667969,-0.984375 1.300781,-0.984375 0.914063,0 1.230469,0.7265625 1.230469,1.5820313 v 3.07031247 h 0.960938 V -3.1771219 c 0,-1.828125 -1.136719,-2.2734375 -1.875,-2.2734375 -0.878907,0 -1.5,0.4921875 -1.757813,0.9960938 h -0.02344 l -0.05859,-0.8671875 h -0.855469 c 0.03516,0.4335937 0.04687,0.8789062 0.04687,1.4414062 z m 8.326172,0 H 35.94697 V -3.3529031 h 2.800781 v -0.796875 H 35.94697 v -2.4609375 h 3.023438 v -0.8085938 h -3.996094 z m 9.46875,-5.32031247 h -0.972656 v 3.2460937 c 0,0.1875 -0.03516,0.3632813 -0.08203,0.5039063 -0.175781,0.4335937 -0.632812,0.89062497 -1.277343,0.89062497 -0.867188,0 -1.195313,-0.69140627 -1.195313,-1.71093747 V -5.3216531 H 39.95478 v 3.1054687 c 0,1.86328127 0.996093,2.33203127 1.839843,2.33203127 0.9375,0 1.511719,-0.5625 1.757813,-0.984375 h 0.02344 l 0.04687,0.8671875 h 0.867188 c -0.03516,-0.421875 -0.04687,-0.90234375 -0.04687,-1.46484377 z m 1.664062,5.32031247 h 0.960938 V -2.8489969 c 0,-0.1523437 0.01172,-0.3046875 0.03516,-0.4570312 0.128906,-0.7148438 0.621094,-1.2304688 1.300781,-1.2304688 0.128907,0 0.234375,0.011719 0.328125,0.023437 v -0.9140625 c -0.09375,-0.011719 -0.164062,-0.023437 -0.269531,-0.023437 -0.644531,0 -1.242187,0.4570313 -1.476562,1.171875 h -0.03516 l -0.04687,-1.0429687 h -0.84375 c 0.03516,0.4921875 0.04687,1.03125 0.04687,1.6523437 z M 50.7624,-7.8177469 h -0.960938 v 7.81640627 H 50.7624 V -2.0052469 l 0.492187,-0.5507812 1.828125,2.55468747 h 1.183594 l -2.34375,-3.14062497 2.050781,-2.1796875 H 52.8249 l -1.582031,1.828125 c -0.152344,0.1875 -0.328125,0.421875 -0.457032,0.609375 h -0.02344 z m 8.203125,4.546875 c 0,-1.0664062 -0.398438,-2.1796875 -2.039063,-2.1796875 -0.667968,0 -1.324218,0.1875 -1.757812,0.46875 l 0.222656,0.6445313 c 0.363281,-0.2578125 0.890625,-0.3984375 1.394531,-0.3984375 1.089844,-0.011719 1.207032,0.796875 1.207032,1.2304687 v 0.1171875 c -2.050782,-0.011719 -3.199219,0.6914063 -3.199219,1.9804688 0,0.77343747 0.550781,1.52343747 1.628906,1.52343747 0.761719,0 1.335938,-0.375 1.628906,-0.78515625 h 0.03516 l 0.08203,0.66796875 h 0.867187 c -0.04687,-0.36328125 -0.07031,-0.80859375 -0.07031,-1.27734377 z m -0.949219,1.4765625 c 0,0.09375 -0.01172,0.2109375 -0.04687,0.3046875 -0.152344,0.4570313 -0.597656,0.89062502 -1.3125,0.89062502 -0.480469,0 -0.902344,-0.28125 -0.902344,-0.92578122 0,-1.03125 1.207032,-1.21875 2.261719,-1.1953125 z m 0,0" style="fill:#ffffff;fill-opacity:1;fill-rule:nonzero;stroke:none" aria-label=" station Furka" transform="matrix(1.3333333,0,0,1.3333333,650.10587,1084.7596)" clip-path="url(#clipPath46)"/>
    
  </g>
</svg>